#!OML:ASF F:\VICON\USERDATA\INSTALL\Justin_Nancy\Justin_Nancy.ASF
:FULLY-SPECIFIED
:DEGREES
126
root 12.5383 17.3528 -7.95223 0.836343 -0.759988 -4.43153
lowerback 5.92039 1.58082 3.1474
upperback -0.0973958 2.42131 2.75458
thorax -3.41122 1.17267 0.866905
lowerneck -16.9625 -4.12547 -8.69457
upperneck 23.9791 -4.79172 5.4804
head 10.8942 -2.32041 2.75097
rclavicle 4.11484e-014 3.37934e-014
rhumerus -23.7788 -2.97273 -82.2574
rradius 37.1394
rwrist 2.16265
rhand -14.9281 12.4462
rfingers 7.12502
rthumb 11.2341 -17.233
lclavicle 4.11484e-014 3.37934e-014
lhumerus -33.7133 15.4429 83.236
lradius 23.0476
lwrist -12.7187
lhand -10.9806 33.5867
lfingers 7.12502
lthumb 15.0392 63.0205
rfemur 7.66574 3.69242 31.3858
rtibia 14.031
rfoot -14.136 -7.95641
rtoes 0.833033
lfemur -31.0965 -6.51557 -9.82422
ltibia 23.0166
lfoot -12.174 10.9088
ltoes -5.99122
127
root 12.5538 17.3339 -7.81701 0.930585 -0.86406 -4.43665
lowerback 5.85392 1.60009 3.11031
upperback -0.0991419 2.44016 2.72939
thorax -3.37591 1.18289 0.861929
lowerneck -15.9881 -4.54496 -9.10866
upperneck 23.9562 -5.35823 5.47534
head 10.7587 -2.63283 2.74497
rclavicle 1.49089e-014 -7.55382e-015
rhumerus -23.3978 -3.16044 -82.3059
rradius 36.8932
rwrist 2.44061
rhand -14.628 12.1596
rfingers 7.12502
rthumb 11.5235 -17.5036
lclavicle 1.49089e-014 -7.55382e-015
lhumerus -33.5612 15.9849 82.9447
lradius 22.5929
lwrist -13.0275
lhand -7.25608 43.8033
lfingers 7.12502
lthumb 18.6245 72.9317
rfemur 8.32054 3.87669 31.375
rtibia 13.6267
rfoot -13.9865 -7.76417
rtoes 3.0544
lfemur -31.4501 -7.26706 -9.39652
ltibia 22.3596
lfoot -12.7649 11.6371
ltoes -7.93055
128
root 12.5751 17.3246 -7.68453 1.06682 -0.911527 -4.37439
lowerback 5.87795 1.64434 3.09539
upperback -0.248161 2.50203 2.62438
thorax -3.53923 1.21031 0.753596
lowerneck -17.0225 -3.95982 -9.02342
upperneck 24.241 -4.67438 6.24168
head 11.0204 -2.20635 3.10817
rclavicle -3.05631e-015 7.95139e-016
rhumerus -23.2755 -3.4811 -82.368
rradius 36.6215
rwrist 2.68041
rhand -14.3859 12.2032
rfingers 7.12502
rthumb 11.757 -17.4468
lclavicle -3.05631e-015 7.95139e-016
lhumerus -33.058 18.3791 81.6886
lradius 20.5232
lwrist -15.4318
lhand -11.5079 30.3903
lfingers 7.12502
lthumb 14.5312 59.8614
rfemur 8.87758 3.6144 31.2495
rtibia 13.2874
rfoot -13.7346 -7.75142
rtoes 1.42905
lfemur -31.7028 -7.54372 -9.29157
ltibia 21.9177
lfoot -13.55 11.8781
ltoes -8.89336
129
root 12.593 17.3314 -7.5544 1.20391 -0.925004 -4.38168
lowerback 5.99288 1.72162 3.12392
upperback -0.43901 2.61746 2.52834
thorax -3.79513 1.26198 0.621755
lowerneck -16.9353 -3.99105 -8.9164
upperneck 24.586 -4.79278 6.31125
head 11.1415 -2.24522 3.10509
rclavicle -4.4975e-015 -1.63003e-014
rhumerus -23.4123 -3.82887 -82.3764
rradius 36.5261
rwrist 2.81933
rhand -14.328 12.569
rfingers 7.12502
rthumb 11.8128 -17.0778
lclavicle -4.4975e-015 -1.63003e-014
lhumerus -33.5614 17.8503 81.667
lradius 20.951
lwrist -15.096
lhand -12.7635 26.5132
lfingers 7.12502
lthumb 13.3212 56.0674
rfemur 9.29108 3.5653 31.2398
rtibia 13.0942
rfoot -13.8236 -8.07562
rtoes -1.78552
lfemur -31.8451 -7.32617 -9.3245
ltibia 21.6652
lfoot -13.7388 11.7355
ltoes -10.4258
130
root 12.609 17.3168 -7.42146 1.20552 -0.836254 -4.57837
lowerback 6.17517 1.66299 3.2315
upperback -0.5643 2.56576 2.61919
thorax -4.02837 1.23131 0.652682
lowerneck -16.6077 -4.02734 -8.9099
upperneck 24.5841 -4.84548 6.19964
head 11.0784 -2.28789 3.05742
rclavicle -1.3654e-014 3.97569e-015
rhumerus -23.5308 -3.65418 -82.3555
rradius 36.435
rwrist 2.58251
rhand -14.4433 12.5291
rfingers 7.12502
rthumb 11.7016 -17.1241
lclavicle -1.3654e-014 3.97569e-015
lhumerus -33.8314 18.4387 81.3468
lradius 20.7176
lwrist -15.7663
lhand -12.6287 26.6958
lfingers 7.12502
lthumb 13.451 56.2414
rfemur 9.8239 4.04355 31.4912
rtibia 13.1066
rfoot -14.2948 -8.31707
rtoes -0.946964
lfemur -31.8516 -7.21473 -9.1582
ltibia 21.5861
lfoot -13.3466 11.5733
ltoes -9.16215
131
root 12.629 17.2848 -7.28873 1.27612 -0.598365 -4.61514
lowerback 6.274 1.51876 3.27317
upperback -0.622503 2.38644 2.66491
thorax -4.14691 1.14008 0.689962
lowerneck -16.8893 -4.00138 -9.23739
upperneck 24.8496 -4.7596 6.4175
head 11.2411 -2.25049 3.20934
rclavicle -1.77167e-014 -4.37326e-015
rhumerus -23.3965 -3.46412 -82.3856
rradius 36.2339
rwrist 2.45175
rhand -14.3118 12.1544
rfingers 7.12502
rthumb 11.8284 -17.4915
lclavicle -1.77167e-014 -4.37326e-015
lhumerus -33.8197 19.5066 80.859
lradius 20.1039
lwrist -16.7469
lhand -12.7885 25.7909
lfingers 7.12502
lthumb 13.297 55.3467
rfemur 10.2518 4.28114 31.5551
rtibia 13.3375
rfoot -14.4335 -8.29867
rtoes 1.72491
lfemur -32.0132 -6.66302 -9.43199
ltibia 21.6152
lfoot -12.3349 11.1124
ltoes -7.15866
132
root 12.6541 17.2693 -7.15402 1.35607 -0.427308 -4.52924
lowerback 6.28013 1.43531 3.27199
upperback -0.560816 2.2708 2.6203
thorax -4.08545 1.08333 0.656054
lowerneck -17.6822 -3.97534 -9.29446
upperneck 25.26 -4.66192 6.46755
head 11.5477 -2.19484 3.25538
rclavicle -2.47487e-014 -7.55382e-015
rhumerus -23.2002 -3.52271 -82.426
rradius 36.1213
rwrist 2.5663
rhand -14.3606 12.0612
rfingers 7.12502
rthumb 11.7814 -17.5874
lclavicle -2.47487e-014 -7.55382e-015
lhumerus -33.7827 19.5109 80.8519
lradius 20.1592
lwrist -16.5301
lhand -13.0471 25.877
lfingers 7.12502
lthumb 13.0478 55.4489
rfemur 10.3396 4.02288 31.4385
rtibia 13.9076
rfoot -14.1251 -8.49536
rtoes 0.191822
lfemur -32.0028 -5.52185 -10.126
ltibia 21.6558
lfoot -10.97 10.5113
ltoes -5.7893
133
root 12.6759 17.2703 -7.01903 1.29724 -0.528703 -4.64633
lowerback 6.39254 1.43699 3.29754
upperback -0.464354 2.28044 2.71186
thorax -4.05138 1.08946 0.733773
lowerneck -17.5097 -4.21162 -9.58558
upperneck 24.9162 -4.94439 6.57676
head 11.4221 -2.3375 3.29531
rclavicle 2.47238e-014 1.23246e-014
rhumerus -23.2039 -3.5669 -82.3826
rradius 36.3365
rwrist 2.69918
rhand -14.5165 12.0073
rfingers 7.12502
rthumb 11.631 -17.6499
lclavicle 2.47238e-014 1.23246e-014
lhumerus -33.8282 19.1727 81.1315
lradius 20.5247
lwrist -15.6504
lhand -12.6999 27.3864
lfingers 7.12502
lthumb 13.3824 56.9366
rfemur 10.2899 4.11508 31.589
rtibia 14.8094
rfoot -14.0793 -8.82857
rtoes -3.24212
lfemur -31.6532 -4.72269 -10.3978
ltibia 21.7617
lfoot -10.2137 10.6494
ltoes -5.67037
134
root 12.6987 17.2641 -6.87941 1.16746 -0.699563 -4.54938
lowerback 6.4919 1.5214 3.12319
upperback -0.37111 2.37953 2.68708
thorax -4.01521 1.14298 0.794304
lowerneck -17.5301 -4.26042 -9.37439
upperneck 24.403 -5.03437 6.51275
head 11.2322 -2.36205 3.21126
rclavicle 2.87741e-014 1.23246e-014
rhumerus -23.1822 -3.87577 -82.341
rradius 36.3535
rwrist 2.83957
rhand -14.2651 11.7678
rfingers 7.12502
rthumb 11.8735 -17.8756
lclavicle 2.87741e-014 1.23246e-014
lhumerus -33.6445 19.315 81.1209
lradius 20.3926
lwrist -15.8385
lhand -12.138 28.3451
lfingers 7.12502
lthumb 13.924 57.8589
rfemur 10.4498 4.48093 31.4849
rtibia 15.6021
rfoot -14.217 -8.87469
rtoes -3.8056
lfemur -31.3084 -4.49076 -10.6849
ltibia 22.1987
lfoot -10.182 11.0474
ltoes -4.81179
135
root 12.7232 17.2384 -6.73568 1.02408 -0.993399 -4.65067
lowerback 6.59981 1.63745 3.16086
upperback -0.293731 2.54015 2.7113
thorax -3.99396 1.22263 0.780619
lowerneck -17.2203 -4.56841 -9.73624
upperneck 24.7831 -5.42751 6.56015
head 11.3669 -2.57654 3.23861
rclavicle -8.27441e-015 2.78299e-015
rhumerus -23.2426 -4.15764 -82.3219
rradius 36.2958
rwrist 2.8547
rhand -14.3624 11.5965
rfingers 7.12502
rthumb 11.7796 -18.0522
lclavicle -8.27441e-015 2.78299e-015
lhumerus -33.3642 20.0518 80.7782
lradius 19.7352
lwrist -16.908
lhand -12.4248 27.2087
lfingers 7.12502
lthumb 13.6477 56.7413
rfemur 10.8305 4.73787 31.5731
rtibia 16.248
rfoot -14.2827 -8.98729
rtoes -5.71221
lfemur -31.0715 -4.04093 -10.783
ltibia 22.8949
lfoot -9.88222 11.0496
ltoes -4.8637
